<svg width="26" height="26" viewBox="0 0 26 26" fill="none" xmlns="http://www.w3.org/2000/svg">
<path d="M16.825 20.5501C16.9005 20.6256 16.9604 20.7152 17.0012 20.8139C17.0421 20.9125 17.0631 21.0182 17.0631 21.125C17.0631 21.2317 17.0421 21.3374 17.0012 21.4361C16.9604 21.5347 16.9005 21.6243 16.825 21.6998C16.7495 21.7753 16.6599 21.8352 16.5613 21.876C16.4626 21.9169 16.3569 21.9379 16.2502 21.9379C16.1434 21.9379 16.0377 21.9169 15.939 21.876C15.8404 21.8352 15.7508 21.7753 15.6753 21.6998L7.55031 13.5748C7.47476 13.4993 7.41483 13.4097 7.37395 13.3111C7.33306 13.2125 7.31201 13.1067 7.31201 13C7.31201 12.8932 7.33306 12.7875 7.37395 12.6888C7.41483 12.5902 7.47476 12.5006 7.55031 12.4251L15.6753 4.30012C15.8278 4.14766 16.0345 4.06201 16.2502 4.06201C16.4658 4.06201 16.6725 4.14766 16.825 4.30012C16.9775 4.45258 17.0631 4.65936 17.0631 4.87496C17.0631 5.09057 16.9775 5.29735 16.825 5.44981L9.27382 13L16.825 20.5501Z" fill="#40629C"/>
</svg>
