<svg width="17" height="20" viewBox="0 0 17 20" fill="none" xmlns="http://www.w3.org/2000/svg">
<path d="M15.8333 0.25H3.08331C2.28766 0.25 1.5246 0.56607 0.961993 1.12868C0.399383 1.69129 0.083313 2.45435 0.083313 3.25V19C0.083313 19.1989 0.162331 19.3897 0.302983 19.5303C0.443635 19.671 0.634401 19.75 0.833313 19.75H14.3333C14.5322 19.75 14.723 19.671 14.8636 19.5303C15.0043 19.3897 15.0833 19.1989 15.0833 19C15.0833 18.8011 15.0043 18.6103 14.8636 18.4697C14.723 18.329 14.5322 18.25 14.3333 18.25H1.58331C1.58331 17.8522 1.74135 17.4706 2.02265 17.1893C2.30396 16.908 2.68549 16.75 3.08331 16.75H15.8333C16.0322 16.75 16.223 16.671 16.3636 16.5303C16.5043 16.3897 16.5833 16.1989 16.5833 16V1C16.5833 0.801088 16.5043 0.610322 16.3636 0.46967C16.223 0.329018 16.0322 0.25 15.8333 0.25ZM7.58331 1.75H12.0833V8.5L10.2824 7.15C10.1526 7.05263 9.99465 7 9.83238 7C9.6701 7 9.5122 7.05263 9.38238 7.15L7.58331 8.5V1.75ZM15.0833 15.25H3.08331C2.55657 15.2493 2.03904 15.388 1.58331 15.6522V3.25C1.58331 2.85218 1.74135 2.47064 2.02265 2.18934C2.30396 1.90804 2.68549 1.75 3.08331 1.75H6.08331V10C6.08331 10.1393 6.1221 10.2758 6.19532 10.3943C6.26855 10.5128 6.37332 10.6085 6.4979 10.6708C6.62248 10.7331 6.76195 10.7595 6.90067 10.747C7.03939 10.7345 7.17189 10.6836 7.28331 10.6L9.83331 8.6875L12.3843 10.6C12.5138 10.6972 12.6714 10.7498 12.8333 10.75C13.0322 10.75 13.223 10.671 13.3636 10.5303C13.5043 10.3897 13.5833 10.1989 13.5833 10V1.75H15.0833V15.25Z" fill="#007AFF"/>
</svg>
