<svg width="25" height="24" viewBox="0 0 25 24" fill="none" xmlns="http://www.w3.org/2000/svg">
<path d="M19.8333 2.25H7.08332C6.28767 2.25 5.52461 2.56607 4.962 3.12868C4.39939 3.69129 4.08332 4.45435 4.08332 5.25V21C4.08332 21.1989 4.16234 21.3897 4.30299 21.5303C4.44364 21.671 4.63441 21.75 4.83332 21.75H18.3333C18.5322 21.75 18.723 21.671 18.8637 21.5303C19.0043 21.3897 19.0833 21.1989 19.0833 21C19.0833 20.8011 19.0043 20.6103 18.8637 20.4697C18.723 20.329 18.5322 20.25 18.3333 20.25H5.58332C5.58332 19.8522 5.74136 19.4706 6.02266 19.1893C6.30396 18.908 6.6855 18.75 7.08332 18.75H19.8333C20.0322 18.75 20.223 18.671 20.3637 18.5303C20.5043 18.3897 20.5833 18.1989 20.5833 18V3C20.5833 2.80109 20.5043 2.61032 20.3637 2.46967C20.223 2.32902 20.0322 2.25 19.8333 2.25ZM11.5833 3.75H16.0833V10.5L14.2824 9.15C14.1526 9.05263 13.9947 9 13.8324 9C13.6701 9 13.5122 9.05263 13.3824 9.15L11.5833 10.5V3.75ZM19.0833 17.25H7.08332C6.55658 17.2493 6.03904 17.388 5.58332 17.6522V5.25C5.58332 4.85218 5.74136 4.47064 6.02266 4.18934C6.30396 3.90804 6.6855 3.75 7.08332 3.75H10.0833V12C10.0833 12.1393 10.1221 12.2758 10.1953 12.3943C10.2686 12.5128 10.3733 12.6085 10.4979 12.6708C10.6225 12.7331 10.762 12.7595 10.9007 12.747C11.0394 12.7345 11.1719 12.6836 11.2833 12.6L13.8333 10.6875L16.3843 12.6C16.5138 12.6972 16.6714 12.7498 16.8333 12.75C17.0322 12.75 17.223 12.671 17.3637 12.5303C17.5043 12.3897 17.5833 12.1989 17.5833 12V3.75H19.0833V17.25Z" fill="#0A0A0A"/>
</svg>
