<svg width="24" height="24" viewBox="0 0 24 24" fill="none" xmlns="http://www.w3.org/2000/svg">
<path d="M18.75 3.00011H15.3506C14.9292 2.52829 14.4129 2.15079 13.8355 1.89232C13.2581 1.63385 12.6326 1.50024 12 1.50024C11.3674 1.50024 10.7419 1.63385 10.1645 1.89232C9.58709 2.15079 9.07079 2.52829 8.64938 3.00011H5.25C4.85218 3.00011 4.47064 3.15814 4.18934 3.43945C3.90804 3.72075 3.75 4.10228 3.75 4.50011V20.2501C3.75 20.6479 3.90804 21.0295 4.18934 21.3108C4.47064 21.5921 4.85218 21.7501 5.25 21.7501H18.75C19.1478 21.7501 19.5294 21.5921 19.8107 21.3108C20.092 21.0295 20.25 20.6479 20.25 20.2501V4.50011C20.25 4.10228 20.092 3.72075 19.8107 3.43945C19.5294 3.15814 19.1478 3.00011 18.75 3.00011ZM12 3.00011C12.7956 3.00011 13.5587 3.31618 14.1213 3.87879C14.6839 4.4414 15 5.20446 15 6.00011H9C9 5.20446 9.31607 4.4414 9.87868 3.87879C10.4413 3.31618 11.2044 3.00011 12 3.00011ZM18.75 20.2501H5.25V4.50011H7.75781C7.58721 4.98181 7.50002 5.48909 7.5 6.00011V6.75011C7.5 6.94902 7.57902 7.13979 7.71967 7.28044C7.86032 7.42109 8.05109 7.50011 8.25 7.50011H15.75C15.9489 7.50011 16.1397 7.42109 16.2803 7.28044C16.421 7.13979 16.5 6.94902 16.5 6.75011V6.00011C16.5 5.48909 16.4128 4.98181 16.2422 4.50011H18.75V20.2501Z" fill="#0A0A0A"/>
</svg>
