<svg width="20" height="20" viewBox="0 0 20 20" fill="none" xmlns="http://www.w3.org/2000/svg">
<path d="M6.81568 4.10863C6.76521 4.00126 6.68522 3.91047 6.58506 3.84687C6.48489 3.78328 6.3687 3.74951 6.25006 3.74951C6.13141 3.74951 6.01522 3.78328 5.91506 3.84687C5.8149 3.91047 5.7349 4.00126 5.68443 4.10863L0.684432 14.7336C0.649498 14.8079 0.629537 14.8883 0.625688 14.9703C0.621838 15.0523 0.634177 15.1343 0.661998 15.2115C0.718186 15.3675 0.834028 15.4947 0.984041 15.5653C1.13405 15.6358 1.30595 15.6439 1.46191 15.5877C1.61788 15.5315 1.74513 15.4157 1.81568 15.2657L3.11724 12.5H9.38287L10.6844 15.2657C10.7194 15.3399 10.7686 15.4066 10.8293 15.4619C10.89 15.5171 10.961 15.5599 11.0382 15.5877C11.1154 15.6155 11.1974 15.6279 11.2794 15.624C11.3614 15.6202 11.4418 15.6002 11.5161 15.5653C11.5904 15.5303 11.657 15.4811 11.7123 15.4204C11.7675 15.3597 11.8103 15.2887 11.8381 15.2115C11.8659 15.1343 11.8783 15.0523 11.8744 14.9703C11.8706 14.8883 11.8506 14.8079 11.8157 14.7336L6.81568 4.10863ZM3.70553 11.25L6.25006 5.843L8.79459 11.25H3.70553ZM15.6251 7.50004C14.6282 7.50004 13.8493 7.77113 13.3102 8.30629C13.1974 8.42394 13.1349 8.58103 13.1363 8.74406C13.1376 8.90708 13.2026 9.06314 13.3174 9.17892C13.4321 9.29471 13.5876 9.36107 13.7506 9.36385C13.9136 9.36663 14.0713 9.3056 14.1899 9.19379C14.4868 8.89925 14.9712 8.75004 15.6251 8.75004C16.6587 8.75004 17.5001 9.45316 17.5001 10.3125V10.5641C16.9454 10.193 16.2924 9.99656 15.6251 10C13.9016 10 12.5001 11.2618 12.5001 12.8125C12.5001 14.3633 13.9016 15.625 15.6251 15.625C16.2926 15.628 16.9458 15.4307 17.5001 15.0586C17.5078 15.2244 17.5811 15.3803 17.7038 15.492C17.8265 15.6037 17.9886 15.6621 18.1544 15.6543C18.3201 15.6466 18.476 15.5733 18.5877 15.4506C18.6994 15.3279 18.7578 15.1658 18.7501 15V10.3125C18.7501 8.76175 17.3485 7.50004 15.6251 7.50004ZM15.6251 14.375C14.5915 14.375 13.7501 13.6719 13.7501 12.8125C13.7501 11.9532 14.5915 11.25 15.6251 11.25C16.6587 11.25 17.5001 11.9532 17.5001 12.8125C17.5001 13.6719 16.6587 14.375 15.6251 14.375Z" fill="#0A0A0A"/>
</svg>
