<svg width="28.094727" height="18.453369" viewBox="0 0 28.0947 18.4534" fill="none" xmlns="http://www.w3.org/2000/svg" xmlns:xlink="http://www.w3.org/1999/xlink">
	<desc>
			Created with Pixso.
	</desc>
	<defs/>
	<path id="Vector" d="M9.59 0.55C9.51 0.39 9.39 0.24 9.23 0.15C9.08 0.05 8.9 0 8.71 0C8.53 0 8.35 0.05 8.19 0.15C8.04 0.24 7.92 0.39 7.84 0.55L0.09 17.02C0.03 17.14 0 17.26 0 17.39C-0.01 17.51 0.01 17.64 0.05 17.76C0.14 18 0.32 18.2 0.55 18.31C0.78 18.42 1.05 18.43 1.29 18.34C1.53 18.26 1.73 18.08 1.84 17.85L3.86 13.56L13.57 13.56L15.59 17.85C15.64 17.96 15.72 18.06 15.81 18.15C15.91 18.23 16.02 18.3 16.14 18.34C16.26 18.39 16.38 18.41 16.51 18.4C16.64 18.39 16.76 18.36 16.88 18.31C16.99 18.26 17.09 18.18 17.18 18.08C17.27 17.99 17.33 17.88 17.38 17.76C17.42 17.64 17.44 17.51 17.43 17.39C17.43 17.26 17.39 17.14 17.34 17.02L9.59 0.55ZM4.77 11.62L8.71 3.24L12.66 11.62L4.77 11.62ZM23.25 5.81C21.7 5.81 20.49 6.23 19.66 7.06C19.48 7.24 19.39 7.48 19.39 7.74C19.39 7.99 19.49 8.23 19.67 8.41C19.85 8.59 20.09 8.69 20.34 8.7C20.59 8.7 20.84 8.61 21.02 8.43C21.48 7.98 22.23 7.75 23.25 7.75C24.85 7.75 26.15 8.84 26.15 10.17L26.15 10.56C25.29 9.98 24.28 9.68 23.25 9.68C20.57 9.68 18.4 11.64 18.4 14.04C18.4 16.45 20.57 18.4 23.25 18.4C24.28 18.41 25.29 18.1 26.15 17.52C26.16 17.78 26.28 18.02 26.47 18.2C26.66 18.37 26.91 18.46 27.17 18.45C27.42 18.44 27.66 18.32 27.84 18.13C28.01 17.94 28.1 17.69 28.09 17.43L28.09 10.17C28.09 7.76 25.92 5.81 23.25 5.81ZM23.25 16.46C21.64 16.46 20.34 15.37 20.34 14.04C20.34 12.71 21.64 11.62 23.25 11.62C24.85 11.62 26.15 12.71 26.15 14.04C26.15 15.37 24.85 16.46 23.25 16.46Z" fill="#0A0A0A" fill-opacity="1.000000" fill-rule="nonzero"/>
</svg>
