<svg width="26" height="26" viewBox="0 0 26 26" fill="none" xmlns="http://www.w3.org/2000/svg">
<path d="M8.86039 5.34112C8.79477 5.20154 8.69078 5.08351 8.56057 5.00084C8.43036 4.91817 8.27931 4.87427 8.12507 4.87427C7.97084 4.87427 7.81979 4.91817 7.68957 5.00084C7.55936 5.08351 7.45538 5.20154 7.38976 5.34112L0.889761 19.1536C0.844348 19.2502 0.818398 19.3547 0.813394 19.4613C0.80839 19.5679 0.82443 19.6745 0.860597 19.7749C0.933641 19.9776 1.08424 20.143 1.27925 20.2348C1.47427 20.3265 1.69773 20.337 1.90049 20.2639C2.10324 20.1909 2.26867 20.0403 2.36039 19.8453L4.05242 16.2499H12.1977L13.8898 19.8453C13.9352 19.9418 13.9992 20.0285 14.0781 20.1003C14.157 20.1722 14.2493 20.2278 14.3497 20.2639C14.4501 20.3001 14.5566 20.3161 14.6632 20.3111C14.7698 20.3061 14.8743 20.2802 14.9709 20.2348C15.0675 20.1893 15.1541 20.1253 15.226 20.0464C15.2978 19.9675 15.3534 19.8752 15.3896 19.7749C15.4257 19.6745 15.4418 19.5679 15.4368 19.4613C15.4318 19.3547 15.4058 19.2502 15.3604 19.1536L8.86039 5.34112ZM4.81718 14.6249L8.12507 7.59581L11.433 14.6249H4.81718ZM20.3126 9.74995C19.0166 9.74995 18.0041 10.1024 17.3033 10.7981C17.1566 10.951 17.0754 11.1552 17.0772 11.3672C17.0789 11.5791 17.1634 11.782 17.3126 11.9325C17.4618 12.083 17.6639 12.1693 17.8758 12.1729C18.0877 12.1765 18.2926 12.0972 18.4469 11.9518C18.8328 11.5689 19.4625 11.3749 20.3126 11.3749C21.6562 11.3749 22.7501 12.289 22.7501 13.4062V13.7332C22.0291 13.2508 21.1801 12.9954 20.3126 12.9999C18.0721 12.9999 16.2501 14.6402 16.2501 16.6562C16.2501 18.6722 18.0721 20.3124 20.3126 20.3124C21.1804 20.3163 22.0295 20.0598 22.7501 19.5761C22.7602 19.7916 22.8555 19.9943 23.015 20.1395C23.1745 20.2847 23.3852 20.3606 23.6007 20.3505C23.8161 20.3404 24.0188 20.2451 24.164 20.0856C24.3093 19.9261 24.3852 19.7154 24.3751 19.4999V13.4062C24.3751 11.3902 22.553 9.74995 20.3126 9.74995ZM20.3126 18.6874C18.9689 18.6874 17.8751 17.7734 17.8751 16.6562C17.8751 15.539 18.9689 14.6249 20.3126 14.6249C21.6562 14.6249 22.7501 15.539 22.7501 16.6562C22.7501 17.7734 21.6562 18.6874 20.3126 18.6874Z" fill="#40629C"/>
</svg>
