<svg width="26" height="26" viewBox="0 0 26 26" fill="none" xmlns="http://www.w3.org/2000/svg">
<path d="M25.1875 12.9999C25.1876 14.1249 24.8541 15.2246 24.2291 16.1599C23.6042 17.0953 22.7159 17.8244 21.6766 18.2549C20.6373 18.6854 19.4936 18.798 18.3903 18.5785C17.287 18.359 16.2735 17.8173 15.4781 17.0218L15.4446 16.9863L9.35594 10.1105C8.7859 9.5471 8.06197 9.16492 7.27523 9.01203C6.4885 8.85914 5.67412 8.94237 4.93457 9.25125C4.19503 9.56013 3.56337 10.0808 3.11909 10.7479C2.67481 11.4149 2.43775 12.1985 2.43775 12.9999C2.43775 13.8014 2.67481 14.5849 3.11909 15.252C3.56337 15.919 4.19503 16.4397 4.93457 16.7486C5.67412 17.0575 6.4885 17.1407 7.27523 16.9878C8.06197 16.8349 8.7859 16.4528 9.35594 15.8894L10.2212 14.9123C10.292 14.8323 10.3778 14.767 10.4738 14.7202C10.5698 14.6733 10.6741 14.6458 10.7807 14.6393C10.8873 14.6327 10.9942 14.6472 11.0952 14.682C11.1962 14.7167 11.2894 14.771 11.3694 14.8418C11.4494 14.9125 11.5147 14.9983 11.5616 15.0943C11.6085 15.1903 11.6359 15.2946 11.6425 15.4012C11.6491 15.5078 11.6345 15.6147 11.5998 15.7157C11.5651 15.8167 11.5108 15.9099 11.44 15.9899L10.5574 16.9863L10.5239 17.0218C9.72847 17.8172 8.71506 18.3588 7.6118 18.5782C6.50855 18.7976 5.36502 18.6849 4.3258 18.2544C3.28657 17.8239 2.39834 17.095 1.77342 16.1597C1.14849 15.2244 0.814941 14.1248 0.814941 12.9999C0.814941 11.8751 1.14849 10.7755 1.77342 9.84018C2.39834 8.90489 3.28657 8.17591 4.3258 7.74542C5.36502 7.31492 6.50855 7.20226 7.6118 7.42167C8.71506 7.64107 9.72847 8.1827 10.5239 8.97805L10.5574 9.0136L16.6461 15.8894C17.2161 16.4528 17.9401 16.8349 18.7268 16.9878C19.5135 17.1407 20.3279 17.0575 21.0675 16.7486C21.807 16.4397 22.4387 15.919 22.8829 15.252C23.3272 14.5849 23.5643 13.8014 23.5643 12.9999C23.5643 12.1985 23.3272 11.4149 22.8829 10.7479C22.4387 10.0808 21.807 9.56013 21.0675 9.25125C20.3279 8.94237 19.5135 8.85914 18.7268 9.01203C17.9401 9.16492 17.2161 9.5471 16.6461 10.1105L15.7808 11.0875C15.6379 11.2491 15.4366 11.3474 15.2213 11.3606C15.006 11.3738 14.7942 11.301 14.6326 11.1581C14.471 11.0152 14.3728 10.8139 14.3595 10.5986C14.3463 10.3833 14.4191 10.1715 14.562 10.0099L15.4446 9.0136L15.4781 8.97805C16.2735 8.18256 17.287 7.64081 18.3903 7.42132C19.4936 7.20183 20.6373 7.31447 21.6766 7.74497C22.7159 8.17548 23.6042 8.90452 24.2291 9.8399C24.8541 10.7753 25.1876 11.875 25.1875 12.9999Z" fill="#056FDD"/>
</svg>
