<svg width="44" height="44" viewBox="0 0 44 44" fill="none" xmlns="http://www.w3.org/2000/svg">
<rect width="44" height="44" rx="22" fill="#E5F1FD"/>
<path d="M29.0668 22.1077L23.8251 20.178L21.8955 14.9323C21.7812 14.6218 21.5744 14.3539 21.3031 14.1646C21.0318 13.9754 20.7089 13.8739 20.3781 13.8739C20.0473 13.8739 19.7245 13.9754 19.4531 14.1646C19.1818 14.3539 18.975 14.6218 18.8608 14.9323L16.9291 20.1719L11.6833 22.1016C11.3729 22.2158 11.105 22.4226 10.9157 22.6939C10.7265 22.9652 10.625 23.2881 10.625 23.6189C10.625 23.9497 10.7265 24.2726 10.9157 24.5439C11.105 24.8152 11.3729 25.022 11.6833 25.1362L16.9219 27.0781L18.8516 32.3208C18.9659 32.6312 19.1727 32.8992 19.444 33.0884C19.7153 33.2777 20.0382 33.3791 20.369 33.3791C20.6998 33.3791 21.0226 33.2777 21.294 33.0884C21.5653 32.8992 21.772 32.6312 21.8863 32.3208L23.816 27.0791L29.0617 25.1495C29.3722 25.0352 29.6401 24.8284 29.8293 24.5571C30.0186 24.2858 30.1201 23.9629 30.1201 23.6321C30.1201 23.3013 30.0186 22.9784 29.8293 22.7071C29.6401 22.4358 29.3722 22.229 29.0617 22.1148L29.0668 22.1077ZM23.2584 25.5547C23.0389 25.6353 22.8395 25.7627 22.6741 25.9281C22.5087 26.0935 22.3813 26.2929 22.3007 26.5124L20.371 31.7388L18.4454 26.5084C18.3647 26.29 18.2377 26.0916 18.0731 25.927C17.9085 25.7623 17.7101 25.6353 17.4917 25.5547L12.2653 23.625L17.4917 21.6953C17.7101 21.6147 17.9085 21.4877 18.0731 21.323C18.2377 21.1584 18.3647 20.96 18.4454 20.7416L20.3751 15.5152L22.3048 20.7416C22.3853 20.9612 22.5128 21.1606 22.6781 21.326C22.8435 21.4914 23.0429 21.6188 23.2625 21.6994L28.4889 23.6291L23.2584 25.5547ZM23.6251 13.0625C23.6251 12.847 23.7107 12.6403 23.863 12.488C24.0154 12.3356 24.2221 12.25 24.4376 12.25H26.0626V10.625C26.0626 10.4095 26.1482 10.2028 26.3005 10.0505C26.4529 9.8981 26.6596 9.8125 26.8751 9.8125C27.0906 9.8125 27.2972 9.8981 27.4496 10.0505C27.602 10.2028 27.6876 10.4095 27.6876 10.625V12.25H29.3126C29.5281 12.25 29.7347 12.3356 29.8871 12.488C30.0395 12.6403 30.1251 12.847 30.1251 13.0625C30.1251 13.278 30.0395 13.4847 29.8871 13.637C29.7347 13.7894 29.5281 13.875 29.3126 13.875H27.6876V15.5C27.6876 15.7155 27.602 15.9222 27.4496 16.0745C27.2972 16.2269 27.0906 16.3125 26.8751 16.3125C26.6596 16.3125 26.4529 16.2269 26.3005 16.0745C26.1482 15.9222 26.0626 15.7155 26.0626 15.5V13.875H24.4376C24.2221 13.875 24.0154 13.7894 23.863 13.637C23.7107 13.4847 23.6251 13.278 23.6251 13.0625ZM34.1876 17.9375C34.1876 18.153 34.102 18.3597 33.9496 18.512C33.7972 18.6644 33.5906 18.75 33.3751 18.75H32.5626V19.5625C32.5626 19.778 32.477 19.9846 32.3246 20.137C32.1722 20.2894 31.9656 20.375 31.7501 20.375C31.5346 20.375 31.3279 20.2894 31.1755 20.137C31.0232 19.9846 30.9376 19.778 30.9376 19.5625V18.75H30.1251C29.9096 18.75 29.7029 18.6644 29.5505 18.512C29.3982 18.3597 29.3126 18.153 29.3126 17.9375C29.3126 17.722 29.3982 17.5153 29.5505 17.363C29.7029 17.2106 29.9096 17.125 30.1251 17.125H30.9376V16.3125C30.9376 16.097 31.0232 15.8903 31.1755 15.738C31.3279 15.5856 31.5346 15.5 31.7501 15.5C31.9656 15.5 32.1722 15.5856 32.3246 15.738C32.477 15.8903 32.5626 16.097 32.5626 16.3125V17.125H33.3751C33.5906 17.125 33.7972 17.2106 33.9496 17.363C34.102 17.5153 34.1876 17.722 34.1876 17.9375Z" fill="#056FDD"/>
</svg>
