<svg width="26" height="26" viewBox="0 0 26 26" fill="none" xmlns="http://www.w3.org/2000/svg">
<g clip-path="url(#clip0_152_78)">
<path d="M22.6891 11.5781L5.57582 2.00079C5.29068 1.8345 4.96233 1.75726 4.63296 1.77898C4.30359 1.8007 3.98823 1.92038 3.72739 2.12266C3.46099 2.33284 3.26758 2.6216 3.1746 2.94794C3.08162 3.27427 3.0938 3.62161 3.20942 3.94063L6.06332 11.9133C6.09219 11.9928 6.14459 12.0616 6.21353 12.1106C6.28247 12.1596 6.3647 12.1864 6.44926 12.1875H13.7821C13.9929 12.1842 14.1972 12.2609 14.3536 12.4023C14.5101 12.5437 14.6071 12.7391 14.625 12.9492C14.632 13.0601 14.6161 13.1713 14.5784 13.2758C14.5407 13.3803 14.4819 13.476 14.4058 13.5569C14.3296 13.6378 14.2377 13.7022 14.1357 13.7462C14.0336 13.7902 13.9237 13.8127 13.8125 13.8125H6.44926C6.3647 13.8136 6.28247 13.8404 6.21353 13.8894C6.14459 13.9384 6.09219 14.0072 6.06332 14.0867L3.20942 22.0594C3.12379 22.305 3.09798 22.5675 3.13415 22.8251C3.17032 23.0827 3.26742 23.3279 3.41738 23.5404C3.56734 23.7529 3.76584 23.9266 3.9964 24.0471C4.22695 24.1675 4.48291 24.2312 4.74301 24.2328C5.0198 24.2316 5.29196 24.1618 5.5352 24.0297L22.6891 14.4219C22.9404 14.2792 23.1494 14.0724 23.2948 13.8226C23.4402 13.5729 23.5168 13.289 23.5168 13C23.5168 12.711 23.4402 12.4272 23.2948 12.1774C23.1494 11.9276 22.9404 11.7208 22.6891 11.5781Z" fill="#2196F3"/>
</g>
<defs>
<clipPath id="clip0_152_78">
<rect width="26" height="26" fill="white"/>
</clipPath>
</defs>
</svg>
