<svg width="39" height="38" viewBox="0 0 39 38" fill="none" xmlns="http://www.w3.org/2000/svg">
<path d="M38.6066 14.7423C38.4349 14.2033 38.1047 13.7286 37.6592 13.3801C37.2137 13.0316 36.6734 12.8254 36.109 12.7886L25.9012 12.0742L22.1146 2.53919C21.9097 2.01204 21.5503 1.5591 21.0836 1.2397C20.6168 0.92031 20.0645 0.749364 19.4989 0.749268H19.4962C18.9315 0.750275 18.3803 0.921656 17.9145 1.241C17.4488 1.56035 17.0903 2.0128 16.8859 2.53919L13.0428 12.1293L2.89147 12.7886C2.32702 12.8254 1.78679 13.0316 1.34126 13.3801C0.895725 13.7286 0.565585 14.2033 0.39391 14.7423C0.212804 15.2889 0.200484 15.8774 0.358554 16.4311C0.516624 16.9849 0.837759 17.4782 1.28014 17.8468L9.08971 24.4479L6.76671 33.5855C6.6066 34.201 6.63604 34.8505 6.85119 35.4489C7.06634 36.0474 7.45717 36.567 7.97252 36.9397C8.47008 37.3017 9.06508 37.5055 9.68009 37.5247C10.2951 37.5439 10.9016 37.3774 11.4208 37.0471L19.4774 31.9432C19.4881 31.9352 19.4989 31.9298 19.5231 31.9432L28.192 37.4352C28.6626 37.7359 29.2131 37.8875 29.7713 37.8703C30.3295 37.853 30.8695 37.6677 31.3207 37.3385C31.7876 37.001 32.1418 36.5303 32.3368 35.9881C32.5319 35.4459 32.5586 34.8575 32.4137 34.2998L29.9457 24.3176L37.7203 17.8468C38.1627 17.4782 38.4838 16.9849 38.6419 16.4311C38.8 15.8774 38.7877 15.2889 38.6066 14.7423Z" fill="#FFD042"/>
</svg>
