<svg width="39" height="38" viewBox="0 0 39 38" fill="none" xmlns="http://www.w3.org/2000/svg">
<path d="M38.6067 14.7423C38.435 14.2033 38.1049 13.7286 37.6593 13.3801C37.2138 13.0316 36.6736 12.8254 36.1091 12.7886L25.9014 12.0742L22.1147 2.53919C21.9098 2.01204 21.5504 1.5591 21.0837 1.2397C20.6169 0.92031 20.0646 0.749364 19.499 0.749268H19.4963C18.9316 0.750275 18.3804 0.921656 17.9147 1.241C17.4489 1.56035 17.0904 2.0128 16.886 2.53919L13.043 12.1293L2.89159 12.7886C2.32714 12.8254 1.78691 13.0316 1.34138 13.3801C0.895847 13.7286 0.565707 14.2033 0.394032 14.7423C0.212927 15.2889 0.200606 15.8774 0.358676 16.4311C0.516746 16.9849 0.837881 17.4782 1.28026 17.8468L9.08983 24.4479L6.76683 33.5855C6.60672 34.201 6.63616 34.8505 6.85131 35.4489C7.06646 36.0474 7.45729 36.567 7.97264 36.9397C8.4702 37.3017 9.0652 37.5055 9.68021 37.5247C10.2952 37.5439 10.9018 37.3774 11.4209 37.0471L19.4775 31.9432C19.4883 31.9352 19.499 31.9298 19.5232 31.9432L28.1921 37.4352C28.6628 37.7359 29.2132 37.8875 29.7714 37.8703C30.3296 37.853 30.8696 37.6677 31.3208 37.3385C31.7878 37.001 32.1419 36.5303 32.3369 35.9881C32.532 35.4459 32.5588 34.8575 32.4138 34.2998L29.9458 24.3176L37.7204 17.8468C38.1628 17.4782 38.484 16.9849 38.642 16.4311C38.8001 15.8774 38.7878 15.2889 38.6067 14.7423Z" fill="#E1E3E6"/>
</svg>
