<svg width="54" height="84" viewBox="0 0 54 84" fill="none" xmlns="http://www.w3.org/2000/svg">
<rect width="54" height="84" rx="10" fill="#2C3031"/>
<rect x="6" y="14" width="42" height="3" rx="1.5" fill="white"/>
<rect x="6" y="20" width="31" height="3" rx="1.5" fill="white"/>
<rect x="6" y="26" width="38" height="3" rx="1.5" fill="white"/>
<rect x="6" y="32" width="22" height="3" rx="1.5" fill="white"/>
<path d="M32.7075 57.2925C32.8005 57.3854 32.8742 57.4957 32.9246 57.6171C32.9749 57.7385 33.0008 57.8686 33.0008 58C33.0008 58.1314 32.9749 58.2615 32.9246 58.3829C32.8742 58.5043 32.8005 58.6146 32.7075 58.7075L25.7075 65.7075C25.6146 65.8005 25.5043 65.8742 25.3829 65.9246C25.2615 65.9749 25.1314 66.0008 25 66.0008C24.8686 66.0008 24.7385 65.9749 24.6171 65.9246C24.4957 65.8742 24.3854 65.8005 24.2925 65.7075L21.2925 62.7075C21.1049 62.5199 20.9994 62.2654 20.9994 62C20.9994 61.7346 21.1049 61.4801 21.2925 61.2925C21.4801 61.1049 21.7346 60.9994 22 60.9994C22.2654 60.9994 22.5199 61.1049 22.7075 61.2925L25 63.5863L31.2925 57.2925C31.3854 57.1995 31.4957 57.1258 31.6171 57.0754C31.7385 57.0251 31.8686 56.9992 32 56.9992C32.1314 56.9992 32.2615 57.0251 32.3829 57.0754C32.5043 57.1258 32.6146 57.1995 32.7075 57.2925ZM40 61C40 63.5712 39.2376 66.0846 37.8091 68.2224C36.3807 70.3603 34.3503 72.0265 31.9749 73.0104C29.5995 73.9944 26.9856 74.2518 24.4638 73.7502C21.9421 73.2486 19.6257 72.0105 17.8076 70.1924C15.9895 68.3743 14.7514 66.0579 14.2498 63.5362C13.7482 61.0144 14.0056 58.4006 14.9896 56.0251C15.9735 53.6497 17.6398 51.6194 19.7776 50.1909C21.9154 48.7624 24.4288 48 27 48C30.4467 48.0036 33.7512 49.3744 36.1884 51.8116C38.6256 54.2488 39.9964 57.5533 40 61ZM38 61C38 58.8244 37.3549 56.6977 36.1462 54.8887C34.9375 53.0798 33.2195 51.6699 31.2095 50.8373C29.1995 50.0048 26.9878 49.7869 24.854 50.2114C22.7202 50.6358 20.7602 51.6834 19.2218 53.2218C17.6835 54.7602 16.6358 56.7202 16.2114 58.854C15.7869 60.9878 16.0048 63.1995 16.8373 65.2095C17.6699 67.2195 19.0798 68.9375 20.8887 70.1462C22.6977 71.3549 24.8244 72 27 72C29.9164 71.9967 32.7123 70.8367 34.7745 68.7745C36.8367 66.7123 37.9967 63.9164 38 61Z" fill="white"/>
</svg>
